<svg width="13" height="12" viewBox="0 0 13 12" fill="none" xmlns="http://www.w3.org/2000/svg">
<path fill-rule="evenodd" clip-rule="evenodd" d="M3.18934 1.18934C3.47064 0.908035 3.85218 0.75 4.25 0.75H8.75C9.14782 0.75 9.52936 0.908035 9.81066 1.18934C10.092 1.47064 10.25 1.85218 10.25 2.25V10.875C10.25 11.0227 10.1633 11.1566 10.0286 11.2171C9.89391 11.2776 9.73623 11.2534 9.62586 11.1553L6.5 8.37673L3.37414 11.1553C3.26376 11.2534 3.10609 11.2776 2.97138 11.2171C2.83667 11.1566 2.75 11.0227 2.75 10.875V2.25C2.75 1.85218 2.90804 1.47064 3.18934 1.18934ZM4.25 1.5C4.05109 1.5 3.86032 1.57902 3.71967 1.71967C3.57902 1.86032 3.5 2.05109 3.5 2.25V10.0399L6.25086 7.59472C6.39295 7.46843 6.60705 7.46843 6.74914 7.59472L9.5 10.0399V2.25C9.5 2.05109 9.42098 1.86032 9.28033 1.71967C9.13968 1.57902 8.94891 1.5 8.75 1.5H4.25Z" fill="#464E59"/>
</svg>
